<svg width="1000" height="1000" viewBox="0 0 1000 1000" fill="none" xmlns="http://www.w3.org/2000/svg">
<path id="stroke-1" d="M493.46 198.341C490.494 199.606 486.224 205.55 483.246 211.316C479.916 217.761 477.711 223.882 474.298 229.212C470.487 235.163 467.484 240.5 464.071 245.62C460.658 250.74 457.257 255.84 453.844 261.171C450.11 267.002 445.752 271.18 442.339 276.3C438.729 281.715 435.526 288.642 432.112 294.408C428.513 300.488 425.299 305.695 420.825 313.998C417.59 320.001 413.794 324.871 410.381 330.412C406.176 337.239 403.567 343.611 396.971 351.287C392.26 356.769 388.662 363.221 383.753 368.551C378.743 373.992 375.444 379.839 367.576 388.142C362.162 393.854 357.982 398.17 354.984 403.706C352.11 409.011 347.32 413.076 343.696 418.407C339.401 424.724 334.971 428.851 330.28 434.168C322.2 443.327 316.64 448.869 312.594 454.411C306.805 462.34 301.735 467.61 297.254 473.586C291.191 481.673 284.273 488.472 273.413 500.412C267.16 507.287 264.228 512.786 258.482 521.3C253.629 528.491 248.888 533.24 243.353 538.57C238.105 543.625 235.261 549.014 231.413 553.699C227.564 558.386 223.321 562.641 218.636 568.822C212.367 577.093 202.024 585.652 195.633 590.982C189.015 596.501 184.128 600.148 178.158 605.894C175.639 608.318 173.888 610.809 172.603 612.509C168.765 617.589 186.198 619.758 196.208 623.586C203.22 626.268 210.896 628.706 218.592 630.624C225.905 632.446 232.219 636.376 237.984 639.144C244.306 642.179 251.394 644.046 258.22 646.814C264.909 649.526 271.003 652.56 279.517 657.034C286.544 660.727 293.579 662.786 300.405 666.2C306.896 669.445 311.91 673.857 317.03 677.705C321.949 681.402 328.094 686.206 333.648 690.488C338.521 694.245 343.869 697.302 348.138 701.987C353.255 707.602 359.209 710.085 365.6 714.559C372.875 719.651 382.628 724.147 393.072 729.682C400.359 733.544 405.229 738.208 415.647 743.955C427.964 750.747 437.187 753.549 443.79 756.112C452.853 759.63 460.197 763.775 467.222 767.188C477.11 771.993 484.486 774.002 491.939 776.354C499.534 778.751 507.061 781.672 525.559 789.118C534.751 792.818 542.42 796.168 548.409 799.147C555.567 802.707 568.396 806.804 575.676 810.863C583.588 815.274 593.119 818.309 599.754 822.157C607.82 826.835 620.808 832.371 628.938 835.579C635.343 840.91 640.443 844.311 644.502 848.785C645.569 849.858 646.835 850.702 650.695 852.85" stroke="black" stroke-width="2" stroke-linecap="round" stroke-linejoin="round"/>
</svg>
